<?xml version="1.0" encoding="UTF-8" standalone="no"?>
<svg
   version="1.1"
   height="480"
   width="720"
   id="svg3"
   xmlns="http://www.w3.org/2000/svg"
   xmlns:svg="http://www.w3.org/2000/svg">
  <defs
     id="defs3" />
  <path
     d="M 0,0 H 720 V 480 H 0 Z"
     fill="#ffffff"
     id="path1" />
  <path
     d="m 150,180 11,41 41,-11 -30,30 30,30 -41,-11 -11,41 -11,-41 -41,11 30,-30 -30,-30 41,11 z m 140,0 11,41 41,-11 -30,30 30,30 -41,-11 -11,41 -11,-41 -41,11 30,-30 -30,-30 41,11 z m 140,0 11,41 41,-11 -30,30 30,30 -41,-11 -11,41 -11,-41 -41,11 30,-30 -30,-30 41,11 z m 140,0 11,41 41,-11 -30,30 30,30 -41,-11 -11,41 -11,-41 -41,11 30,-30 -30,-30 41,11 z"
     fill="#e4002b"
     id="path2" />
  <path
     d="m 0,80 h 720 v 80 H 0 v 160 h 720 v 80 H 0 Z"
     fill="#41b6e6"
     id="path3" />
</svg>
